<svg width="32" height="32" viewBox="0 0 32 32" fill="none" xmlns="http://www.w3.org/2000/svg">
<rect width="32" height="32" fill="white"/>
<path d="M5.21715 15.2875V11H5.72518V13.127H5.77435L7.65901 11H8.32273L6.56099 12.9344L8.32273 15.2875H7.70817L6.24961 13.2945L5.72518 13.8974V15.2875H5.21715Z" fill="#F47B55"/>
<path d="M9.34414 11V15.2875H8.8361V11H9.34414Z" fill="#F47B55"/>
<path d="M10.2186 15.2875V11H11.6853C11.9776 11 12.2186 11.0516 12.4084 11.1549C12.5983 11.2568 12.7396 11.3943 12.8325 11.5673C12.9254 11.739 12.9718 11.9295 12.9718 12.1389C12.9718 12.3231 12.9397 12.4752 12.8755 12.5953C12.8127 12.7153 12.7294 12.8102 12.6256 12.88C12.5232 12.9498 12.4119 13.0014 12.2917 13.0349V13.0768C12.4201 13.0851 12.5491 13.1312 12.6789 13.2149C12.8086 13.2987 12.9172 13.4187 13.0046 13.575C13.092 13.7314 13.1357 13.9226 13.1357 14.1487C13.1357 14.3636 13.0879 14.5569 12.9923 14.7286C12.8967 14.9002 12.7458 15.0363 12.5396 15.1368C12.3333 15.2373 12.065 15.2875 11.7345 15.2875H10.2186ZM10.7266 14.827H11.7345C12.0663 14.827 12.3019 14.7614 12.4412 14.6302C12.5819 14.4976 12.6522 14.3371 12.6522 14.1487C12.6522 14.0035 12.616 13.8695 12.5436 13.7467C12.4713 13.6225 12.3682 13.5234 12.2343 13.4494C12.1005 13.3741 11.9421 13.3364 11.7591 13.3364H10.7266V14.827ZM10.7266 12.8842H11.6689C11.8219 12.8842 11.9598 12.8535 12.0827 12.7921C12.207 12.7306 12.3053 12.6441 12.3777 12.5325C12.4515 12.4208 12.4883 12.2896 12.4883 12.1389C12.4883 11.9505 12.4242 11.7907 12.2958 11.6595C12.1674 11.5269 11.9639 11.4606 11.6853 11.4606H10.7266V12.8842Z" fill="#F47B55"/>
<path d="M13.9983 15.2875H13.4657L15.0062 11H15.5306L17.0711 15.2875H16.5385L15.2848 11.6783H15.252L13.9983 15.2875ZM14.195 13.6127H16.3418V14.0733H14.195V13.6127Z" fill="#F47B55"/>
<path d="M17.7525 15.2875H17.2199L18.7604 11H19.2848L20.8253 15.2875H20.2927L19.039 11.6783H19.0062L17.7525 15.2875ZM17.9491 13.6127H20.096V14.0733H17.9491V13.6127Z" fill="#F47B55"/>
<path d="M21.3346 15.2875V11H21.8426V14.827H23.7928V15.2875H21.3346Z" fill="#F47B55"/>
<path d="M24.4352 15.2875V11H26.9672V11.4606H24.9433V12.9093H26.8361V13.3699H24.9433V14.827H27V15.2875H24.4352Z" fill="#F47B55"/>
<path d="M8.77546 18.1528H7.8782C7.86181 18.0342 7.82835 17.9288 7.77782 17.8367C7.72729 17.7432 7.66242 17.6636 7.58321 17.598C7.504 17.5324 7.4125 17.4822 7.30871 17.4473C7.20628 17.4124 7.09497 17.395 6.97479 17.395C6.75765 17.395 6.5685 17.4501 6.40735 17.5603C6.2462 17.6692 6.12123 17.8283 6.03246 18.0377C5.94369 18.2456 5.89931 18.4982 5.89931 18.7955C5.89931 19.1012 5.94369 19.358 6.03246 19.5659C6.1226 19.7739 6.24824 19.9309 6.4094 20.037C6.57055 20.1431 6.75697 20.1961 6.96865 20.1961C7.08746 20.1961 7.1974 20.18 7.29846 20.1479C7.40089 20.1158 7.49171 20.0691 7.57092 20.0077C7.65013 19.9449 7.71568 19.8688 7.76758 19.7795C7.82084 19.6902 7.85771 19.5883 7.8782 19.4738L8.77546 19.478C8.75224 19.6748 8.6942 19.8646 8.60134 20.0474C8.50983 20.2289 8.38624 20.3915 8.23055 20.5352C8.07623 20.6776 7.89186 20.7906 7.67744 20.8744C7.46439 20.9567 7.22335 20.9979 6.95431 20.9979C6.58011 20.9979 6.24551 20.9114 5.95052 20.7383C5.6569 20.5652 5.42473 20.3147 5.25402 19.9867C5.08467 19.6587 5 19.2617 5 18.7955C5 18.328 5.08604 17.9302 5.25812 17.6022C5.43019 17.2742 5.66373 17.0244 5.95872 16.8527C6.25371 16.6797 6.58557 16.5931 6.95431 16.5931C7.1974 16.5931 7.42274 16.628 7.63033 16.6978C7.83928 16.7676 8.02433 16.8695 8.18548 17.0035C8.34663 17.1361 8.47774 17.2987 8.5788 17.4913C8.68123 17.6839 8.74678 17.9044 8.77546 18.1528Z" fill="#F47B55"/>
<path d="M9.26732 20.9393V16.6518H10.1543V18.4208H11.955V16.6518H12.84V20.9393H11.955V19.1682H10.1543V20.9393H9.26732Z" fill="#F47B55"/>
<path d="M14.3141 16.6518V20.9393H13.4271V16.6518H14.3141Z" fill="#F47B55"/>
<path d="M14.8997 16.6518H15.9936L17.149 19.5324H17.1981L18.3535 16.6518H19.4474V20.9393H18.5871V18.1486H18.5522L17.4665 20.9184H16.8806L15.7949 18.1382H15.7601V20.9393H14.8997V16.6518Z" fill="#F47B55"/>
<path d="M20.034 20.9393V16.6518H21.6893C22.0075 16.6518 22.2786 16.7139 22.5025 16.8381C22.7265 16.9609 22.8972 17.1319 23.0147 17.351C23.1335 17.5687 23.1929 17.8199 23.1929 18.1047C23.1929 18.3894 23.1328 18.6406 23.0126 18.8583C22.8924 19.0761 22.7183 19.2456 22.4902 19.3671C22.2635 19.4885 21.989 19.5492 21.6667 19.5492H20.6117V18.8227H21.5233C21.694 18.8227 21.8347 18.7927 21.9453 18.7327C22.0573 18.6713 22.1406 18.5869 22.1952 18.4794C22.2512 18.3705 22.2792 18.2456 22.2792 18.1047C22.2792 17.9623 22.2512 17.8381 22.1952 17.732C22.1406 17.6245 22.0573 17.5415 21.9453 17.4829C21.8333 17.4229 21.6913 17.3929 21.5192 17.3929H20.9211V20.9393H20.034Z" fill="#F47B55"/>
<path d="M25.9008 17.8848C25.8844 17.716 25.814 17.5848 25.6898 17.4913C25.5655 17.3977 25.3968 17.351 25.1838 17.351C25.039 17.351 24.9168 17.3719 24.8171 17.4138C24.7174 17.4543 24.6409 17.5108 24.5876 17.5834C24.5357 17.6559 24.5098 17.7383 24.5098 17.8304C24.5071 17.9072 24.5228 17.9742 24.5569 18.0314C24.5924 18.0886 24.6409 18.1382 24.7024 18.18C24.7638 18.2205 24.8348 18.2561 24.9154 18.2868C24.996 18.3161 25.082 18.3412 25.1735 18.3622L25.5505 18.4543C25.7335 18.4961 25.9014 18.552 26.0544 18.6218C26.2074 18.6915 26.3398 18.7774 26.4518 18.8793C26.5638 18.9811 26.6505 19.1012 26.712 19.2393C26.7748 19.3775 26.8069 19.5359 26.8083 19.7146C26.8069 19.977 26.7413 20.2045 26.6116 20.3971C26.4832 20.5883 26.2975 20.7369 26.0544 20.843C25.8127 20.9477 25.5211 21 25.1797 21C24.841 21 24.546 20.947 24.2947 20.8409C24.0448 20.7348 23.8495 20.5778 23.7088 20.3698C23.5695 20.1605 23.4964 19.9016 23.4896 19.5932H24.348C24.3575 19.7369 24.3978 19.8569 24.4688 19.9532C24.5412 20.0481 24.6375 20.12 24.7577 20.1689C24.8792 20.2163 25.0165 20.2401 25.1694 20.2401C25.3196 20.2401 25.4501 20.2177 25.5607 20.1731C25.6727 20.1284 25.7594 20.0663 25.8209 19.9867C25.8823 19.9072 25.913 19.8158 25.913 19.7125C25.913 19.6162 25.885 19.5352 25.8291 19.4696C25.7744 19.404 25.6938 19.3482 25.5873 19.3022C25.4822 19.2561 25.3531 19.2142 25.2002 19.1765L24.7433 19.0593C24.3896 18.9714 24.1103 18.8339 23.9055 18.6469C23.7006 18.4599 23.5989 18.2079 23.6002 17.8911C23.5989 17.6315 23.6665 17.4047 23.803 17.2107C23.941 17.0167 24.1301 16.8653 24.3705 16.7564C24.6109 16.6476 24.884 16.5931 25.1899 16.5931C25.5013 16.5931 25.7731 16.6476 26.0052 16.7564C26.2388 16.8653 26.4204 17.0167 26.5501 17.2107C26.6799 17.4047 26.7468 17.6294 26.7509 17.8848H25.9008Z" fill="#F47B55"/>
</svg>
