<svg width="462" height="206" viewBox="0 0 462 206" fill="none" xmlns="http://www.w3.org/2000/svg">
<path d="M4.65625 88V0H15.3125V43.6563H16.3438L55.875 0H69.7969L32.8438 39.7031L69.7969 88H56.9062L26.3125 47.0938L15.3125 59.4688V88H4.65625Z" fill="white"/>
<path d="M91.2211 0V88H80.5648V0H91.2211Z" fill="white"/>
<path d="M109.562 88V0H140.328C146.458 0 151.514 1.0599 155.496 3.17969C159.478 5.27083 162.443 8.09245 164.39 11.6445C166.338 15.168 167.312 19.0781 167.312 23.375C167.312 27.1562 166.639 30.2786 165.293 32.7422C163.975 35.2057 162.228 37.1536 160.051 38.5859C157.902 40.0182 155.568 41.0781 153.047 41.7656V42.625C155.739 42.7969 158.446 43.7422 161.168 45.4609C163.889 47.1797 166.166 49.6432 168 52.8516C169.833 56.0599 170.75 59.9844 170.75 64.625C170.75 69.0365 169.747 73.0039 167.742 76.5273C165.737 80.0508 162.571 82.8437 158.246 84.9062C153.92 86.9688 148.291 88 141.359 88H109.562ZM120.219 78.5469H141.359C148.32 78.5469 153.262 77.2005 156.183 74.5078C159.134 71.7865 160.609 68.4922 160.609 64.625C160.609 61.6458 159.85 58.8958 158.332 56.375C156.814 53.8255 154.651 51.7917 151.844 50.2734C149.036 48.7266 145.713 47.9531 141.875 47.9531H120.219V78.5469ZM120.219 38.6719H139.984C143.193 38.6719 146.086 38.0417 148.664 36.7813C151.271 35.5208 153.333 33.7448 154.851 31.4531C156.398 29.1615 157.172 26.4688 157.172 23.375C157.172 19.5078 155.825 16.2279 153.133 13.5352C150.44 10.8138 146.172 9.45313 140.328 9.45313H120.219V38.6719Z" fill="white"/>
<path d="M188.844 88H177.672L209.985 0H220.985L253.297 88H242.125L215.828 13.9219H215.141L188.844 88ZM192.969 53.625H238V63.0781H192.969V53.625Z" fill="white"/>
<path d="M267.588 88H256.417L288.729 0H299.729L332.042 88H320.87L294.573 13.9219H293.885L267.588 88ZM271.713 53.625H316.745V63.0781H271.713V53.625Z" fill="white"/>
<path d="M342.724 88V0H353.38V78.5469H394.286V88H342.724Z" fill="white"/>
<path d="M407.761 88V0H460.871V9.45313H418.417V39.1875H458.121V48.6406H418.417V78.5469H461.558V88H407.761Z" fill="white"/>
<path d="M79.293 146.809H60.4727C60.1289 144.374 59.4271 142.211 58.3672 140.32C57.3073 138.401 55.9466 136.768 54.2852 135.422C52.6237 134.076 50.7044 133.044 48.5273 132.328C46.3789 131.612 44.0443 131.254 41.5234 131.254C36.9688 131.254 33.0013 132.385 29.6211 134.648C26.2409 136.883 23.6198 140.148 21.7578 144.445C19.8958 148.714 18.9648 153.898 18.9648 160C18.9648 166.273 19.8958 171.544 21.7578 175.812C23.6484 180.081 26.2839 183.303 29.6641 185.48C33.0443 187.658 36.9544 188.746 41.3945 188.746C43.8867 188.746 46.1927 188.417 48.3125 187.758C50.4609 187.099 52.3659 186.139 54.0273 184.879C55.6888 183.59 57.0638 182.029 58.1523 180.195C59.2695 178.362 60.043 176.271 60.4727 173.922L79.293 174.008C78.806 178.047 77.5885 181.943 75.6406 185.695C73.7214 189.419 71.1289 192.757 67.8633 195.707C64.6263 198.629 60.7591 200.949 56.2617 202.668C51.793 204.358 46.737 205.203 41.0938 205.203C33.2448 205.203 26.2266 203.427 20.0391 199.875C13.8802 196.323 9.01042 191.181 5.42969 184.449C1.8776 177.717 0.101562 169.568 0.101562 160C0.101562 150.404 1.90625 142.24 5.51563 135.508C9.125 128.776 14.0234 123.648 20.2109 120.125C26.3984 116.573 33.3594 114.797 41.0938 114.797C46.1927 114.797 50.9193 115.513 55.2734 116.945C59.6563 118.378 63.5378 120.469 66.918 123.219C70.2982 125.94 73.0482 129.277 75.168 133.23C77.3164 137.184 78.6914 141.71 79.293 146.809Z" fill="white"/>
<path d="M89.6098 204V116H108.215V152.309H145.985V116H164.547V204H145.985V167.648H108.215V204H89.6098Z" fill="white"/>
<path d="M195.468 116V204H176.862V116H195.468Z" fill="white"/>
<path d="M207.75 116H230.696L254.93 175.125H255.961L280.195 116H303.141V204H285.094V146.723H284.363L261.59 203.57H249.301L226.528 146.508H225.797V204H207.75V116Z" fill="white"/>
<path d="M315.445 204V116H350.164C356.838 116 362.524 117.275 367.222 119.824C371.92 122.345 375.501 125.854 377.964 130.352C380.457 134.82 381.703 139.977 381.703 145.82C381.703 151.664 380.442 156.82 377.921 161.289C375.401 165.758 371.748 169.238 366.964 171.73C362.209 174.223 356.451 175.469 349.691 175.469H327.562V160.559H346.683C350.264 160.559 353.214 159.943 355.535 158.711C357.884 157.451 359.631 155.717 360.777 153.512C361.951 151.277 362.539 148.714 362.539 145.82C362.539 142.898 361.951 140.349 360.777 138.172C359.631 135.966 357.884 134.262 355.535 133.059C353.186 131.827 350.207 131.211 346.597 131.211H334.05V204H315.445Z" fill="white"/>
<path d="M438.501 141.309C438.157 137.842 436.682 135.15 434.075 133.23C431.468 131.311 427.931 130.352 423.462 130.352C420.425 130.352 417.862 130.781 415.771 131.641C413.679 132.471 412.075 133.632 410.958 135.121C409.869 136.611 409.325 138.301 409.325 140.191C409.268 141.767 409.597 143.142 410.313 144.316C411.058 145.491 412.075 146.508 413.364 147.367C414.653 148.198 416.143 148.928 417.833 149.559C419.523 150.16 421.328 150.676 423.247 151.105L431.153 152.996C434.992 153.855 438.515 155.001 441.724 156.434C444.932 157.866 447.711 159.628 450.06 161.719C452.409 163.81 454.228 166.273 455.517 169.109C456.834 171.945 457.507 175.197 457.536 178.863C457.507 184.249 456.132 188.918 453.411 192.871C450.718 196.796 446.823 199.846 441.724 202.023C436.653 204.172 430.537 205.246 423.376 205.246C416.272 205.246 410.084 204.158 404.813 201.98C399.571 199.803 395.475 196.581 392.524 192.312C389.603 188.016 388.07 182.702 387.927 176.371H405.931C406.131 179.322 406.976 181.785 408.466 183.762C409.984 185.71 412.004 187.185 414.524 188.188C417.074 189.161 419.953 189.648 423.161 189.648C426.312 189.648 429.048 189.19 431.368 188.273C433.717 187.357 435.536 186.082 436.825 184.449C438.114 182.816 438.759 180.94 438.759 178.82C438.759 176.844 438.172 175.182 436.997 173.836C435.851 172.49 434.161 171.344 431.927 170.398C429.721 169.453 427.014 168.594 423.806 167.82L414.224 165.414C406.804 163.609 400.946 160.788 396.649 156.949C392.353 153.111 390.218 147.94 390.247 141.438C390.218 136.109 391.636 131.454 394.501 127.473C397.394 123.491 401.362 120.383 406.403 118.148C411.445 115.914 417.174 114.797 423.591 114.797C430.122 114.797 435.823 115.914 440.692 118.148C445.591 120.383 449.401 123.491 452.122 127.473C454.843 131.454 456.247 136.066 456.333 141.309H438.501Z" fill="white"/>
</svg>
