<svg width="256" height="256" viewBox="0 0 256 256" fill="none" xmlns="http://www.w3.org/2000/svg">
<rect width="256" height="256" fill="white"/>
<path d="M20.1616 120.589V79H25.2189V99.6321H25.7083L44.4692 79H51.0763L33.5389 97.7638L51.0763 120.589H44.9586L30.4393 101.257L25.2189 107.105V120.589H20.1616Z" fill="#F47B55"/>
<path d="M61.2439 79V120.589H56.1866V79H61.2439Z" fill="#F47B55"/>
<path d="M69.9484 120.589V79H84.5492C87.4585 79 89.858 79.5009 91.7477 80.5027C93.6374 81.491 95.0445 82.8245 95.9689 84.5032C96.8934 86.1684 97.3556 88.0164 97.3556 90.0471C97.3556 91.8341 97.0361 93.3098 96.3972 94.4741C95.7718 95.6383 94.9425 96.5589 93.9093 97.2358C92.8897 97.9128 91.7817 98.4137 90.5854 98.7386V99.1447C91.8633 99.2259 93.148 99.6727 94.4395 100.485C95.731 101.297 96.8118 102.462 97.6819 103.978C98.5519 105.494 98.987 107.349 98.987 109.542C98.987 111.627 98.5112 113.502 97.5595 115.167C96.6079 116.832 95.1056 118.152 93.0528 119.127C91 120.102 88.3286 120.589 85.0387 120.589H69.9484ZM75.0056 116.122H85.0387C88.3422 116.122 90.6873 115.485 92.074 114.213C93.4743 112.927 94.1744 111.37 94.1744 109.542C94.1744 108.134 93.8141 106.834 93.0936 105.643C92.3731 104.438 91.3467 103.477 90.0144 102.759C88.6821 102.028 87.1051 101.663 85.2834 101.663H75.0056V116.122ZM75.0056 97.2765H84.3861C85.9087 97.2765 87.2818 96.9786 88.5053 96.3829C89.7425 95.7873 90.7213 94.9479 91.4418 93.8649C92.176 92.7818 92.543 91.5092 92.543 90.0471C92.543 88.2195 91.9041 86.6693 90.6261 85.3968C89.3482 84.1106 87.3226 83.4676 84.5492 83.4676H75.0056V97.2765Z" fill="#F47B55"/>
<path d="M107.574 120.589H102.272L117.607 79H122.828L138.163 120.589H132.861L120.381 85.5795H120.054L107.574 120.589ZM109.532 104.343H130.903V108.811H109.532V104.343Z" fill="#F47B55"/>
<path d="M144.945 120.589H139.643L154.978 79H160.199L175.534 120.589H170.232L157.751 85.5795H157.425L144.945 120.589ZM146.903 104.343H168.274V108.811H146.903V104.343Z" fill="#F47B55"/>
<path d="M180.603 120.589V79H185.66V116.122H205.074V120.589H180.603Z" fill="#F47B55"/>
<path d="M211.469 120.589V79H236.674V83.4676H216.526V97.5201H235.369V101.988H216.526V116.122H237V120.589H211.469Z" fill="#F47B55"/>
<path d="M55.583 148.382H46.6512C46.488 147.231 46.155 146.209 45.652 145.316C45.1489 144.409 44.5032 143.637 43.7147 143.001C42.9262 142.365 42.0153 141.877 40.9821 141.539C39.9625 141.2 38.8545 141.031 37.6582 141.031C35.4966 141.031 33.6137 141.566 32.0095 142.635C30.4053 143.691 29.1614 145.235 28.2777 147.265C27.3941 149.283 26.9522 151.733 26.9522 154.617C26.9522 157.581 27.3941 160.072 28.2777 162.09C29.175 164.107 30.4257 165.63 32.0299 166.659C33.6341 167.688 35.4898 168.202 37.597 168.202C38.7798 168.202 39.8741 168.046 40.8802 167.735C41.8998 167.424 42.8038 166.97 43.5923 166.374C44.3808 165.765 45.0334 165.027 45.55 164.161C46.0802 163.294 46.4473 162.306 46.6512 161.196L55.583 161.237C55.3519 163.146 54.7741 164.987 53.8497 166.76C52.9388 168.52 51.7085 170.097 50.1587 171.492C48.6224 172.873 46.7871 173.969 44.6527 174.782C42.5319 175.58 40.1324 175.98 37.4543 175.98C33.7293 175.98 30.3985 175.14 27.462 173.462C24.5391 171.783 22.228 169.353 20.5286 166.171C18.8429 162.99 18 159.138 18 154.617C18 150.081 18.8565 146.223 20.5694 143.041C22.2824 139.86 24.6071 137.437 27.5436 135.771C30.4801 134.093 33.7836 133.253 37.4543 133.253C39.8741 133.253 42.1173 133.592 44.1837 134.269C46.2637 134.946 48.1058 135.934 49.71 137.234C51.3142 138.52 52.6193 140.097 53.6253 141.965C54.645 143.833 55.2975 145.972 55.583 148.382Z" fill="#F47B55"/>
<path d="M60.4792 175.411V133.822H69.3091V150.982H87.2339V133.822H96.0434V175.411H87.2339V158.231H69.3091V175.411H60.4792Z" fill="#F47B55"/>
<path d="M110.718 133.822V175.411H101.888V133.822H110.718Z" fill="#F47B55"/>
<path d="M116.547 133.822H127.436L138.938 161.765H139.427L150.928 133.822H161.818V175.411H153.253V148.342H152.906L142.098 175.208H136.266L125.458 148.24H125.112V175.411H116.547V133.822Z" fill="#F47B55"/>
<path d="M167.657 175.411V133.822H184.134C187.302 133.822 190 134.424 192.23 135.629C194.459 136.821 196.159 138.479 197.328 140.605C198.511 142.717 199.102 145.153 199.102 147.915C199.102 150.677 198.504 153.114 197.307 155.226C196.111 157.338 194.378 158.983 192.107 160.16C189.851 161.338 187.118 161.927 183.91 161.927H173.408V154.881H182.482C184.182 154.881 185.582 154.589 186.683 154.007C187.798 153.412 188.627 152.593 189.171 151.55C189.728 150.494 190.007 149.283 190.007 147.915C190.007 146.534 189.728 145.329 189.171 144.3C188.627 143.258 187.798 142.453 186.683 141.884C185.568 141.302 184.154 141.011 182.441 141.011H176.487V175.411H167.657Z" fill="#F47B55"/>
<path d="M226.057 145.783C225.894 144.145 225.194 142.872 223.957 141.965C222.72 141.058 221.041 140.605 218.92 140.605C217.479 140.605 216.262 140.808 215.27 141.214C214.278 141.606 213.516 142.155 212.986 142.859C212.469 143.563 212.211 144.361 212.211 145.255C212.184 146 212.34 146.649 212.68 147.204C213.034 147.759 213.516 148.24 214.128 148.646C214.74 149.039 215.447 149.384 216.249 149.682C217.051 149.966 217.907 150.21 218.818 150.413L222.57 151.306C224.392 151.713 226.064 152.254 227.587 152.931C229.11 153.608 230.428 154.441 231.543 155.429C232.658 156.417 233.521 157.581 234.133 158.922C234.758 160.262 235.078 161.799 235.091 163.531C235.078 166.077 234.425 168.283 233.134 170.152C231.856 172.006 230.007 173.448 227.587 174.477C225.181 175.492 222.278 176 218.879 176C215.508 176 212.571 175.486 210.07 174.457C207.582 173.428 205.638 171.905 204.238 169.888C202.851 167.857 202.124 165.345 202.056 162.354H210.6C210.695 163.748 211.096 164.912 211.803 165.846C212.524 166.767 213.482 167.464 214.679 167.938C215.889 168.398 217.255 168.628 218.777 168.628C220.273 168.628 221.571 168.412 222.672 167.979C223.787 167.545 224.65 166.943 225.262 166.171C225.874 165.4 226.18 164.513 226.18 163.511C226.18 162.577 225.901 161.792 225.344 161.155C224.8 160.519 223.998 159.978 222.937 159.531C221.891 159.084 220.606 158.678 219.083 158.312L214.536 157.175C211.015 156.322 208.235 154.989 206.195 153.175C204.156 151.361 203.143 148.917 203.157 145.844C203.143 143.326 203.816 141.126 205.176 139.244C206.549 137.362 208.432 135.893 210.824 134.837C213.217 133.781 215.936 133.253 218.981 133.253C222.081 133.253 224.786 133.781 227.098 134.837C229.422 135.893 231.23 137.362 232.522 139.244C233.813 141.126 234.48 143.305 234.52 145.783H226.057Z" fill="#F47B55"/>
</svg>
